REM MD5 3bb6f133e5cf8c2d9643e478510bb4e4
FILE "Eberouge 2 (Japan).bin" BINARY
  TRACK 01 MODE2/2352
    INDEX 01 00:00:00
  TRACK 02 AUDIO
    INDEX 00 42:17:72
    INDEX 01 42:19:72
  TRACK 03 AUDIO
    INDEX 00 44:01:52
    INDEX 01 44:03:52
REM LEADOUT 47:05:32
